<svg width="20" height="20" viewBox="0 0 20 20" fill="none" xmlns="http://www.w3.org/2000/svg">
<path d="M10.35 7.35C10.25 7.25 10.1333 7.2 10 7.2C9.86667 7.2 9.75 7.25 9.65 7.35L6.85 10.15C6.68333 10.3167 6.64167 10.5 6.725 10.7C6.80833 10.9 6.96667 11 7.2 11L12.8 11C13.0333 11 13.1917 10.9 13.275 10.7C13.3583 10.5 13.3167 10.3167 13.15 10.15L10.35 7.35ZM10 0C11.3833 0 12.6833 0.262667 13.9 0.788C15.1167 1.31267 16.175 2.025 17.075 2.925C17.975 3.825 18.6873 4.88333 19.212 6.1C19.7373 7.31667 20 8.61667 20 10C20 11.3833 19.7373 12.6833 19.212 13.9C18.6873 15.1167 17.975 16.175 17.075 17.075C16.175 17.975 15.1167 18.6877 13.9 19.213C12.6833 19.7377 11.3833 20 10 20C8.61667 20 7.31667 19.7377 6.1 19.213C4.88333 18.6877 3.825 17.975 2.925 17.075C2.025 16.175 1.31267 15.1167 0.788 13.9C0.262667 12.6833 0 11.3833 0 10C0 8.61667 0.262667 7.31667 0.788 6.1C1.31267 4.88333 2.025 3.825 2.925 2.925C3.825 2.025 4.88333 1.31267 6.1 0.788C7.31667 0.262667 8.61667 0 10 0ZM10 2C7.78333 2 5.89567 2.779 4.337 4.337C2.779 5.89567 2 7.78333 2 10C2 12.2167 2.779 14.1043 4.337 15.663C5.89567 17.221 7.78333 18 10 18C12.2167 18 14.104 17.221 15.662 15.663C17.2207 14.1043 18 12.2167 18 10C18 7.78333 17.2207 5.89567 15.662 4.337C14.104 2.779 12.2167 2 10 2Z" fill="#949294"/>
</svg>
