<svg width="34" height="34" viewBox="0 0 34 34" fill="none" xmlns="http://www.w3.org/2000/svg">
	<path d="M17.0313 4.12109C12.3421 4.12109 8.53127 7.93193 8.53127 12.6211V16.7153C8.53127 17.5794 8.16293 18.8969 7.72377 19.6336L6.0946 22.3394C5.08877 24.0111 5.78293 25.8669 7.6246 26.4903C13.7304 28.5303 20.3179 28.5303 26.4238 26.4903C28.1379 25.9236 28.8888 23.8978 27.9538 22.3394L26.3246 19.6336C25.8996 18.8969 25.5313 17.5794 25.5313 16.7153V12.6211C25.5313 7.94609 21.7063 4.12109 17.0313 4.12109Z" stroke="#0E83B5" stroke-width="1.5" stroke-miterlimit="10" stroke-linecap="round" />
	<path d="M19.6479 4.535C19.2087 4.4075 18.7554 4.30833 18.2879 4.25167C16.9279 4.08167 15.6246 4.18083 14.4062 4.535C14.8171 3.48667 15.8371 2.75 17.0271 2.75C18.2171 2.75 19.2371 3.48667 19.6479 4.535Z" stroke="#0E83B5" stroke-width="1.5" stroke-miterlimit="10" stroke-linecap="round" stroke-linejoin="round" />
	<path d="M21.2812 27C21.2812 29.3375 19.3687 31.25 17.0312 31.25C15.8696 31.25 14.7929 30.7683 14.0279 30.0033C13.2629 29.2383 12.7812 28.1617 12.7812 27" stroke="#0E83B5" stroke-width="1.5" stroke-miterlimit="10" />
</svg>
