<svg width="60" height="60" viewBox="0 0 60 60" fill="none" xmlns="http://www.w3.org/2000/svg">
	<path d="M55 41.8502V11.6752C55 8.67523 52.55 6.45023 49.575 6.70023H49.425C44.175 7.15023 36.2 9.82523 31.75 12.6252L31.325 12.9002C30.6 13.3502 29.4 13.3502 28.675 12.9002L28.05 12.5252C23.6 9.75023 15.65 7.10023 10.4 6.67523C7.425 6.42523 5 8.67523 5 11.6502V41.8502C5 44.2502 6.95 46.5002 9.35 46.8002L10.075 46.9002C15.5 47.6252 23.875 50.3752 28.675 53.0002L28.775 53.0502C29.45 53.4252 30.525 53.4252 31.175 53.0502C35.975 50.4002 44.375 47.6252 49.825 46.9002L50.65 46.8002C53.05 46.5002 55 44.2502 55 41.8502Z" stroke="#282529" stroke-width="4" stroke-linecap="round" stroke-linejoin="round" />
	<path d="M30 13.7266V51.2266" stroke="#282529" stroke-width="4" stroke-linecap="round" stroke-linejoin="round" />
	<path d="M19.375 21.2266H13.75" stroke="#282529" stroke-width="4" stroke-linecap="round" stroke-linejoin="round" />
	<path d="M21.25 28.7266H13.75" stroke="#282529" stroke-width="4" stroke-linecap="round" stroke-linejoin="round" />
</svg>
