<svg width="60" height="60" viewBox="0 0 60 60" fill="none" xmlns="http://www.w3.org/2000/svg">
	<path d="M27.5 5H22.5C10 5 5 10 5 22.5V37.5C5 50 10 55 22.5 55H37.5C50 55 55 50 55 37.5V32.5" stroke="#282529" stroke-width="4" stroke-linecap="round" stroke-linejoin="round" />
	<path d="M40.1026 7.55112L20.4026 27.2511C19.6526 28.0011 18.9026 29.4761 18.7526 30.5511L17.6776 38.0761C17.2776 40.8011 19.2026 42.7011 21.9276 42.3261L29.4526 41.2511C30.5026 41.1011 31.9776 40.3511 32.7526 39.6011L52.4526 19.9011C55.8526 16.5011 57.4526 12.5511 52.4526 7.55112C47.4526 2.55112 43.5026 4.15112 40.1026 7.55112Z" stroke="#282529" stroke-width="4" stroke-miterlimit="10" stroke-linecap="round" stroke-linejoin="round" />
	<path d="M37.2734 10.375C38.9484 16.35 43.6234 21.025 49.6234 22.725" stroke="#282529" stroke-width="4" stroke-miterlimit="10" stroke-linecap="round" stroke-linejoin="round" />
</svg>
