<svg width="60" height="60" viewBox="0 0 60 60" fill="none" xmlns="http://www.w3.org/2000/svg">
	<path d="M50 35C52.7614 35 55 32.7614 55 30C55 27.2386 52.7614 25 50 25C47.2386 25 45 27.2386 45 30C45 32.7614 47.2386 35 50 35Z" stroke="#282529" stroke-width="4" stroke-linecap="round" stroke-linejoin="round" />
	<path d="M50 15C52.7614 15 55 12.7614 55 10C55 7.23858 52.7614 5 50 5C47.2386 5 45 7.23858 45 10C45 12.7614 47.2386 15 50 15Z" stroke="#282529" stroke-width="4" stroke-linecap="round" stroke-linejoin="round" />
	<path d="M50 55C52.7614 55 55 52.7614 55 50C55 47.2386 52.7614 45 50 45C47.2386 45 45 47.2386 45 50C45 52.7614 47.2386 55 50 55Z" stroke="#282529" stroke-width="4" stroke-linecap="round" stroke-linejoin="round" />
	<path d="M10 35C12.7614 35 15 32.7614 15 30C15 27.2386 12.7614 25 10 25C7.23858 25 5 27.2386 5 30C5 32.7614 7.23858 35 10 35Z" stroke="#282529" stroke-width="4" stroke-linecap="round" stroke-linejoin="round" />
	<path d="M15 30H45" stroke="#282529" stroke-width="4" stroke-linecap="round" stroke-linejoin="round" />
	<path d="M45 10H35C30 10 27.5 12.5 27.5 17.5V42.5C27.5 47.5 30 50 35 50H45" stroke="#282529" stroke-width="4" stroke-linecap="round" stroke-linejoin="round" />
</svg>
