<svg width="100" height="100" viewBox="0 0 100 100" fill="none" xmlns="http://www.w3.org/2000/svg">
<path d="M64.9193 49.9987C64.9193 58.2487 58.2526 64.9154 50.0026 64.9154C41.7526 64.9154 35.0859 58.2487 35.0859 49.9987C35.0859 41.7487 41.7526 35.082 50.0026 35.082C58.2526 35.082 64.9193 41.7487 64.9193 49.9987Z" stroke="white" stroke-width="4" stroke-linecap="round" stroke-linejoin="round"/>
<path d="M49.9974 84.4564C64.7057 84.4564 78.4141 75.7897 87.9557 60.7897C91.7057 54.9147 91.7057 45.0397 87.9557 39.1647C78.4141 24.1647 64.7057 15.498 49.9974 15.498C35.2891 15.498 21.5807 24.1647 12.0391 39.1647C8.28906 45.0397 8.28906 54.9147 12.0391 60.7897C21.5807 75.7897 35.2891 84.4564 49.9974 84.4564Z" stroke="white" stroke-width="4" stroke-linecap="round" stroke-linejoin="round"/>
</svg>
