<svg width="100" height="100" viewBox="0 0 100 100" fill="none" xmlns="http://www.w3.org/2000/svg">
<path d="M58.25 18.6236L50 8.33203" stroke="white" stroke-width="4" stroke-linecap="round" stroke-linejoin="round"/>
<path d="M79.5365 32.4988C84.1615 38.6654 87.0366 46.2904 87.0366 54.6238C87.0366 75.0821 70.4532 91.6655 49.9949 91.6655C29.5365 91.6655 12.9531 75.0821 12.9531 54.6238C12.9531 34.1654 29.5365 17.582 49.9949 17.582C52.8282 17.582 55.5782 17.9572 58.2449 18.5822" stroke="white" stroke-width="4" stroke-linecap="round" stroke-linejoin="round"/>
<path d="M39.75 66.3358V44.0859L33.5 51.0442" stroke="white" stroke-width="4" stroke-linecap="round" stroke-linejoin="round"/>
<path d="M58.3333 44.0859C62.9167 44.0859 66.6667 47.8359 66.6667 52.4193V58.0442C66.6667 62.6275 62.9167 66.3775 58.3333 66.3775C53.75 66.3775 50 62.6275 50 58.0442V52.4193C50 47.7943 53.75 44.0859 58.3333 44.0859Z" stroke="white" stroke-width="4" stroke-linecap="round" stroke-linejoin="round"/>
</svg>
