<svg width="100" height="100" viewBox="0 0 100 100" fill="none" xmlns="http://www.w3.org/2000/svg">
<path d="M31.1641 76.4602L44.0807 86.4602C45.7474 88.1269 49.4974 88.9602 51.9974 88.9602H67.8307C72.8307 88.9602 78.2474 85.2102 79.4974 80.2102L89.4974 49.7936C91.5807 43.9602 87.8307 38.9602 81.5807 38.9602H64.9141C62.4141 38.9602 60.3307 36.8769 60.7474 33.9602L62.8307 20.6269C63.6641 16.8769 61.1641 12.7102 57.4141 11.4602C54.0807 10.2102 49.9141 11.8769 48.2474 14.3769L31.1641 39.7936" stroke="white" stroke-width="4" stroke-miterlimit="10"/>
<path d="M9.91406 76.4609V35.6276C9.91406 29.7943 12.4141 27.7109 18.2474 27.7109H22.4141C28.2474 27.7109 30.7474 29.7943 30.7474 35.6276V76.4609C30.7474 82.2943 28.2474 84.3776 22.4141 84.3776H18.2474C12.4141 84.3776 9.91406 82.2943 9.91406 76.4609Z" stroke="white" stroke-width="4" stroke-linecap="round" stroke-linejoin="round"/>
</svg>
