<svg width="51" height="51" viewBox="0 0 51 51" fill="none" xmlns="http://www.w3.org/2000/svg">
<g clip-path="url(#clip0_1316_1612)">
<path d="M8.05347 21.6715C12.3878 19.8037 16.7476 19.2703 21.2427 21.318C13.8862 30.1936 13.961 40.2301 21.2427 48.8653C18.1122 50.5356 14.7922 50.2984 11.4547 49.8923C7.50411 48.5564 4.22392 46.3717 2.12363 42.6409C-1.67566 35.899 -0.0658172 27.8975 6.06624 23.1874L8.05347 21.6715Z" fill="#0E83B5"/>
<path d="M11.8654 0.332918C15.6154 -0.0444641 19.2092 0.235785 22.6423 2.09403C29.3508 5.73091 32.2377 14.2976 28.9415 21.2959C22.5436 15.9584 15.5326 14.0349 7.57887 17.5094C6.36074 17.6829 5.41172 18.3995 4.45632 19.0858C3.50092 19.7721 2.56463 20.5029 1.62197 21.2131C-1.47351 16.5492 0.236649 8.14807 5.10599 4.01597C7.11551 2.29944 9.46737 1.30105 11.8654 0.332918Z" fill="#0E83B5"/>
<path d="M40.0488 33.8622C41.7382 33.6186 43.2334 32.832 44.6665 32.004C46.0996 31.176 47.4037 30.1123 48.7636 29.1569C51.7524 34.1218 50.1967 41.7809 45.2493 46.3732C44.7414 46.8509 44.2398 47.3206 43.7366 47.7935C39.7096 49.9113 35.5568 50.8651 30.998 49.6566C22.194 47.3222 17.5062 37.1345 21.3867 28.9961C26.7863 33.7747 32.9518 35.6664 40.0488 33.8622Z" fill="#0E83B5"/>
<path d="M44.6428 3.35872C51.735 9.71052 51.1156 17.9524 48.1363 22.9539C46.1571 26.2755 43.2543 28.4682 39.6349 29.7532C36.4502 30.3582 33.2863 30.6672 30.1414 29.492C29.2083 29.1433 28.8994 28.9554 29.6717 27.9761C36.2608 19.6228 36.2671 10.9287 29.7004 2.48772C28.987 1.57054 29.0825 1.37309 30.143 0.997301C35.4216 -0.851392 40.1508 0.492533 44.6428 3.35872Z" fill="#0E83B5"/>
</g>
<defs>
<clipPath id="clip0_1316_1612">
<rect width="50.3176" height="50.3176" fill="white"/>
</clipPath>
</defs>
</svg>
