<svg width="60" height="60" viewBox="0 0 60 60" fill="none" xmlns="http://www.w3.org/2000/svg">
	<path d="M22.5 55H37.5C50 55 55 50 55 37.5V22.5C55 10 50 5 37.5 5H22.5C10 5 5 10 5 22.5V37.5C5 50 10 55 22.5 55Z" stroke="#282529" stroke-width="4" stroke-linecap="round" stroke-linejoin="round" />
	<path d="M22.5 25C25.2614 25 27.5 22.7614 27.5 20C27.5 17.2386 25.2614 15 22.5 15C19.7386 15 17.5 17.2386 17.5 20C17.5 22.7614 19.7386 25 22.5 25Z" stroke="#282529" stroke-width="4" stroke-linecap="round" stroke-linejoin="round" />
	<path d="M6.67188 47.3734L18.9969 39.0984C20.9719 37.7734 23.8219 37.9234 25.5969 39.4484L26.4219 40.1734C28.3719 41.8484 31.5219 41.8484 33.4719 40.1734L43.8719 31.2484C45.8219 29.5734 48.9719 29.5734 50.9219 31.2484L54.9969 34.7484" stroke="#282529" stroke-width="4" stroke-linecap="round" stroke-linejoin="round" />
</svg>
