<svg width="100" height="100" viewBox="0 0 100 100" fill="none" xmlns="http://www.w3.org/2000/svg">
<path d="M35.4193 79.1673H33.3359C16.6693 79.1673 8.33594 75.0006 8.33594 54.1673V33.334C8.33594 16.6673 16.6693 8.33398 33.3359 8.33398H66.6693C83.3359 8.33398 91.6693 16.6673 91.6693 33.334V54.1673C91.6693 70.834 83.3359 79.1673 66.6693 79.1673H64.5859C63.2943 79.1673 62.0443 79.7923 61.2526 80.834L55.0026 89.1673C52.2526 92.834 47.7526 92.834 45.0026 89.1673L38.7526 80.834C38.0859 79.9173 36.5443 79.1673 35.4193 79.1673Z" stroke="white" stroke-width="4" stroke-miterlimit="10" stroke-linecap="round" stroke-linejoin="round"/>
<path d="M29.1641 33.334H70.8307" stroke="white" stroke-width="4" stroke-linecap="round" stroke-linejoin="round"/>
<path d="M29.1641 54.166H54.1641" stroke="white" stroke-width="4" stroke-linecap="round" stroke-linejoin="round"/>
</svg>
