<svg width="60" height="60" viewBox="0 0 60 60" fill="none" xmlns="http://www.w3.org/2000/svg">
	<path d="M45.0031 17.9C44.8531 17.875 44.6781 17.875 44.5281 17.9C41.0781 17.775 38.3281 14.95 38.3281 11.45C38.3281 7.875 41.2031 5 44.7781 5C48.3531 5 51.2281 7.9 51.2281 11.45C51.2031 14.95 48.4531 17.775 45.0031 17.9Z" stroke="#282529" stroke-width="4" stroke-linecap="round" stroke-linejoin="round" />
	<path d="M42.4266 36.1004C45.8516 36.6754 49.6266 36.0754 52.2766 34.3004C55.8016 31.9504 55.8016 28.1004 52.2766 25.7504C49.6016 23.9754 45.7766 23.3754 42.3516 23.9754" stroke="#282529" stroke-width="4" stroke-linecap="round" stroke-linejoin="round" />
	<path d="M14.9281 17.9C15.0781 17.875 15.2531 17.875 15.4031 17.9C18.8531 17.775 21.6031 14.95 21.6031 11.45C21.6031 7.875 18.7281 5 15.1531 5C11.5781 5 8.70312 7.9 8.70312 11.45C8.72812 14.95 11.4781 17.775 14.9281 17.9Z" stroke="#282529" stroke-width="4" stroke-linecap="round" stroke-linejoin="round" />
	<path d="M17.5016 36.1004C14.0766 36.6754 10.3016 36.0754 7.65156 34.3004C4.12656 31.9504 4.12656 28.1004 7.65156 25.7504C10.3266 23.9754 14.1516 23.3754 17.5766 23.9754" stroke="#282529" stroke-width="4" stroke-linecap="round" stroke-linejoin="round" />
	<path d="M29.9953 36.5758C29.8453 36.5508 29.6703 36.5508 29.5203 36.5758C26.0703 36.4508 23.3203 33.6258 23.3203 30.1258C23.3203 26.5508 26.1953 23.6758 29.7703 23.6758C33.3453 23.6758 36.2203 26.5758 36.2203 30.1258C36.1953 33.6258 33.4453 36.4758 29.9953 36.5758Z" stroke="#282529" stroke-width="4" stroke-linecap="round" stroke-linejoin="round" />
	<path d="M22.7219 44.4504C19.1969 46.8004 19.1969 50.6504 22.7219 53.0004C26.7219 55.6754 33.2719 55.6754 37.2719 53.0004C40.7969 50.6504 40.7969 46.8004 37.2719 44.4504C33.2969 41.8004 26.7219 41.8004 22.7219 44.4504Z" stroke="#282529" stroke-width="4" stroke-linecap="round" stroke-linejoin="round" />
</svg>
