<svg width="156" height="103" viewBox="0 0 156 103" fill="none" xmlns="http://www.w3.org/2000/svg">
<path d="M126.717 52.633C144.211 52.633 156 62.8581 156 78.0085C156 91.6419 142.45 103 124.098 103C103.996 103 89.1429 89.3665 89.1429 68.5418C89.1429 21.2086 130.215 2.27536 156 0V20.8247C138.517 23.4746 118.861 38.2411 117.981 54.5338C118.861 54.1593 122.349 52.633 126.717 52.633ZM37.5849 52.633C55.0569 52.633 66.8571 62.8581 66.8571 78.0085C66.8571 91.6419 53.3074 103 34.9551 103C14.8534 103 0 89.3665 0 68.5418C0 21.2086 41.0726 2.27536 66.8571 0V20.8247C49.374 23.4746 29.718 38.2411 28.8377 54.5338C29.718 54.1593 33.2057 52.633 37.5849 52.633Z" fill="#CFE6F0"/>
</svg>
