<svg width="60" height="60" viewBox="0 0 60 60" fill="none" xmlns="http://www.w3.org/2000/svg">
	<path d="M42.3984 15.4258C47.3984 18.9008 50.8484 24.4258 51.5484 30.8008" stroke="#282529" stroke-width="4" stroke-linecap="round" stroke-linejoin="round" />
	<path d="M8.72656 30.9238C9.37656 24.5738 12.7766 19.0488 17.7266 15.5488" stroke="#282529" stroke-width="4" stroke-linecap="round" stroke-linejoin="round" />
	<path d="M20.4766 52.3516C23.3766 53.8266 26.6766 54.6516 30.1516 54.6516C33.5016 54.6516 36.6516 53.9016 39.4766 52.5266" stroke="#282529" stroke-width="4" stroke-linecap="round" stroke-linejoin="round" />
	<path d="M30.1531 19.2496C33.9915 19.2496 37.1031 16.138 37.1031 12.2996C37.1031 8.46123 33.9915 5.34961 30.1531 5.34961C26.3147 5.34961 23.2031 8.46123 23.2031 12.2996C23.2031 16.138 26.3147 19.2496 30.1531 19.2496Z" stroke="#282529" stroke-width="4" stroke-linecap="round" stroke-linejoin="round" />
	<path d="M12.075 49.8004C15.9134 49.8004 19.025 46.6888 19.025 42.8504C19.025 39.012 15.9134 35.9004 12.075 35.9004C8.23662 35.9004 5.125 39.012 5.125 42.8504C5.125 46.6888 8.23662 49.8004 12.075 49.8004Z" stroke="#282529" stroke-width="4" stroke-linecap="round" stroke-linejoin="round" />
	<path d="M47.9266 49.8004C51.7649 49.8004 54.8766 46.6888 54.8766 42.8504C54.8766 39.012 51.7649 35.9004 47.9266 35.9004C44.0882 35.9004 40.9766 39.012 40.9766 42.8504C40.9766 46.6888 44.0882 49.8004 47.9266 49.8004Z" stroke="#282529" stroke-width="4" stroke-linecap="round" stroke-linejoin="round" />
</svg>
