<svg width="60" height="60" viewBox="0 0 60 60" fill="none" xmlns="http://www.w3.org/2000/svg">
	<path d="M30 42.5V48.45C30 53.125 28.125 55 23.425 55H11.55C6.875 55 5 53.125 5 48.45V36.575C5 31.875 6.875 30 11.55 30H17.5V35.925C17.5 40.625 19.375 42.5 24.05 42.5H30Z" stroke="#282529" stroke-width="4" stroke-linecap="round" stroke-linejoin="round" />
	<path d="M42.5 30V35.925C42.5 40.625 40.625 42.5 35.925 42.5H24.05C19.375 42.5 17.5 40.625 17.5 35.925V24.05C17.5 19.375 19.375 17.5 24.05 17.5H30V23.425C30 28.125 31.875 30 36.55 30H42.5Z" stroke="#282529" stroke-width="4" stroke-linecap="round" stroke-linejoin="round" />
	<path d="M55 11.55V23.425C55 28.125 53.125 30 48.425 30H36.55C31.875 30 30 28.125 30 23.425V11.55C30 6.875 31.875 5 36.55 5H48.425C53.125 5 55 6.875 55 11.55Z" stroke="#282529" stroke-width="4" stroke-linecap="round" stroke-linejoin="round" />
</svg>
